<svg id="Layer_1" data-name="Layer 1" xmlns="http://www.w3.org/2000/svg" viewBox="0 0 15 15"><defs><style>.cls-1{fill:#a67c52;}</style></defs><title>icons</title><path class="cls-1" d="M7.5,0.5a7,7,0,1,0,7,7,7,7,0,0,0-7-7h0ZM13,9.81a6,6,0,0,1-3.81,3.43l0.09-.17a2,2,0,0,1,.56-0.72,0.94,0.94,0,0,0,.53-0.73,0.62,0.62,0,0,0-.5-0.38,4.76,4.76,0,0,0-1-.13A4.73,4.73,0,0,1,8.09,11a0.77,0.77,0,0,1-.52-0.83,2.29,2.29,0,0,0-.18-1A1.31,1.31,0,0,0,6.3,8.71c-0.34,0-.67,0-1-0.07a4.67,4.67,0,0,0-1-.15,1,1,0,0,0-.8.64,8.69,8.69,0,0,1-1,1.73,6,6,0,0,1-1-3l0.14-.05a4,4,0,0,1,.52-0.33,1.68,1.68,0,0,1,.64,0,2.56,2.56,0,0,0,.59,0,0.76,0.76,0,0,0,.66-0.7,5.06,5.06,0,0,0,0-.68,0.52,0.52,0,0,1,.57-0.51c0.61-.06,2,0.1,2.05-0.83a0.93,0.93,0,0,0-.77-0.71,18.63,18.63,0,0,0-1.88-.28A1.74,1.74,0,0,1,3.22,3.3,6,6,0,0,1,8.55,1.6,2.67,2.67,0,0,0,8,1.74a1.43,1.43,0,0,0-.52,2.11A3.81,3.81,0,0,0,8.54,5a8.14,8.14,0,0,0,1.25.74c0.58,0.32.51,1.14,0.65,1.7a1.42,1.42,0,0,0,.88,1,2.55,2.55,0,0,1,.86.22,2.14,2.14,0,0,1,.38.74,0.57,0.57,0,0,0,.46.34h0Zm0,0"/></svg>
