<svg width="74" height="34" viewBox="0 0 74 34" fill="none" xmlns="http://www.w3.org/2000/svg">
<path d="M5.1848 0.0839989C5.9048 0.0839989 6.5288 0.173999 7.0568 0.354C7.5848 0.522 8.0408 0.761999 8.4248 1.074C9.1808 1.686 9.6728 2.544 9.9008 3.648L7.6328 4.062C7.4408 3.45 7.1408 2.958 6.7328 2.586C6.3368 2.202 5.8388 2.01 5.2388 2.01C4.4228 2.01 3.7628 2.352 3.2588 3.036C2.7188 3.78 2.4488 4.812 2.4488 6.132C2.4488 7.44 2.6888 8.466 3.1688 9.21C3.6488 9.942 4.3028 10.308 5.1308 10.308C5.9588 10.308 6.5828 10.11 7.0028 9.714C7.4228 9.306 7.6328 8.784 7.6328 8.148H9.9188C9.9188 9.456 9.4988 10.47 8.6588 11.19C7.8308 11.898 6.6908 12.252 5.2388 12.252C3.6908 12.252 2.4608 11.712 1.5488 10.632C0.624795 9.528 0.162795 8.028 0.162795 6.132C0.162795 4.212 0.636795 2.712 1.5848 1.632C2.4968 0.599999 3.6968 0.0839989 5.1848 0.0839989ZM14.181 0.317999H21.705V2.154H16.305V5.232H21.363V7.068H16.305V10.146H21.705V12H14.181V0.317999ZM28.6699 10.146H33.4759V12H26.5459V0.317999H28.6699V10.146ZM37.2224 0.317999H44.7464V2.154H39.3464V5.232H44.4044V7.068H39.3464V10.146H44.7464V12H37.2224V0.317999ZM51.8733 0.317999L57.0213 8.598V0.317999H59.1453V12H56.9853L51.6753 3.432V12H49.5513V0.317999H51.8733ZM66.9896 0.317999H69.6536L73.4876 12H71.2376L70.4276 9.48H66.0896L65.2616 12H63.0116L66.9896 0.317999ZM66.6296 7.878H69.9056L68.2856 2.856L66.6296 7.878ZM0.865148 32.514V30.39C1.78915 30.918 2.68315 31.182 3.54715 31.182C4.06315 31.182 4.43515 31.032 4.66315 30.732C4.90315 30.432 5.02315 29.976 5.02315 29.364V21.318H7.16515V29.364C7.16515 30.708 6.84115 31.71 6.19315 32.37C5.61715 32.958 4.82515 33.252 3.81715 33.252C2.80915 33.252 1.82515 33.006 0.865148 32.514ZM14.7492 21.318H17.4132L21.2472 33H18.9972L18.1872 30.48H13.8492L13.0212 33H10.7712L14.7492 21.318ZM14.3892 28.878H17.6652L16.0452 23.856L14.3892 28.878ZM31.2548 24.54C31.0628 23.52 30.3428 23.01 29.0948 23.01C28.4828 23.01 28.0028 23.136 27.6548 23.388C27.3188 23.628 27.1508 23.922 27.1508 24.27C27.1508 24.618 27.2588 24.894 27.4748 25.098C27.7028 25.29 28.0508 25.47 28.5188 25.638L31.0568 26.628C31.9208 26.964 32.5868 27.39 33.0548 27.906C33.5228 28.41 33.7568 29.046 33.7568 29.814C33.7568 30.87 33.3608 31.71 32.5688 32.334C31.7768 32.946 30.6488 33.252 29.1848 33.252C27.8888 33.252 26.8388 32.934 26.0348 32.298C25.1348 31.602 24.6608 30.618 24.6128 29.346H26.7188C26.7188 30.306 27.2168 30.912 28.2128 31.164C28.5128 31.248 28.9088 31.29 29.4008 31.29C29.8928 31.29 30.3488 31.17 30.7688 30.93C31.1888 30.678 31.3988 30.348 31.3988 29.94C31.3988 29.52 31.2848 29.202 31.0568 28.986C30.8288 28.758 30.4568 28.548 29.9408 28.356L27.6188 27.438C26.7188 27.09 26.0288 26.682 25.5488 26.214C25.0688 25.746 24.8288 25.098 24.8288 24.27C24.8288 23.298 25.2068 22.53 25.9628 21.966C26.7308 21.378 27.7688 21.084 29.0768 21.084C30.3968 21.084 31.4108 21.39 32.1188 22.002C32.8388 22.602 33.2528 23.448 33.3608 24.54H31.2548ZM41.4373 21.318L44.6413 28.266L47.8453 21.318H50.7793V33H48.6373V24.126L45.3253 31.722H43.9393L40.5193 23.874V33H38.3953V21.318H41.4373ZM55.9277 21.318H58.0517V33H55.9277V21.318ZM65.4805 21.318L70.6285 29.598V21.318H72.7525V33H70.5925L65.2825 24.432V33H63.1585V21.318H65.4805Z" fill="black"/>
</svg>
