<svg id="Layer_1" data-name="Layer 1" xmlns="http://www.w3.org/2000/svg" viewBox="0 0 15 15"><defs><style>.cls-1{fill:#a67c52;}</style></defs><title>icons</title><path class="cls-1" d="M7.5,0.5a7,7,0,1,0,7,7,7,7,0,0,0-7-7h0Zm6.12,7a10.09,10.09,0,0,0-4.46-.22C9,6.85,8.78,6.44,8.59,6a9.16,9.16,0,0,0,3.6-2.48A6.1,6.1,0,0,1,13.63,7.5h0ZM11.57,2.94A8.29,8.29,0,0,1,8.18,5.25,30.36,30.36,0,0,0,5.92,1.59a6.05,6.05,0,0,1,5.66,1.35h0ZM5,1.89A29.74,29.74,0,0,1,7.34,5.54a19.32,19.32,0,0,1-5.84.76A6.14,6.14,0,0,1,5,1.89H5ZM1.37,7.5c0-.11,0-0.21,0-0.32H2a19.29,19.29,0,0,0,5.76-.85C7.93,6.71,8.11,7.1,8.29,7.5A9.82,9.82,0,0,0,3,11.64,6.09,6.09,0,0,1,1.37,7.5h0Zm2.27,4.75a8.63,8.63,0,0,1,5-4A22.77,22.77,0,0,1,10,13.08a6.09,6.09,0,0,1-6.37-.83h0Zm7.19,0.39A23.74,23.74,0,0,0,9.5,8.1a9.54,9.54,0,0,1,4.05.29,6.13,6.13,0,0,1-2.73,4.25h0Zm0,0"/></svg>
