<svg id="Layer_1" data-name="Layer 1" xmlns="http://www.w3.org/2000/svg" viewBox="0 0 15 15"><defs><style>.cls-1{fill:#a67c52;}</style></defs><title>icons</title><path class="cls-1" d="M7.5,1.5a6,6,0,0,1,0,12A4.58,4.58,0,0,1,5,13L4.73,12.6l-0.66.18-1.45.4V11l-0.16-.25a6,6,0,0,1,5-9.26m0-1A7,7,0,0,0,1.63,11.3v3.2l2.71-.76s0.73,0.76,3.16.76a7,7,0,0,0,0-14h0Z"/><circle class="cls-1" cx="4.51" cy="7.5" r="0.87"/><circle class="cls-1" cx="7.5" cy="7.5" r="0.87"/><circle class="cls-1" cx="10.49" cy="7.5" r="0.87"/></svg>
